<mxfile host="app.diagrams.net" modified="2023-06-11T06:29:09.591Z" agent="Mozilla/5.0 (Macintosh; Intel Mac OS X 10_15_7) AppleWebKit/537.36 (KHTML, like Gecko) Chrome/112.0.0.0 Safari/537.36" etag="oVjSxfen_ApdYbOOIqk3" version="21.3.8" type="github">
  <diagram name="Page-1" id="YUZGLdObTAUfz5L0qUrW">
    <mxGraphModel dx="984" dy="708" grid="1" gridSize="10" guides="1" tooltips="1" connect="1" arrows="1" fold="1" page="1" pageScale="1" pageWidth="827" pageHeight="1169" math="0" shadow="0">
      <root>
        <mxCell id="0" />
        <mxCell id="1" parent="0" />
        <mxCell id="aSZeypr-7qF1xaAPTcSq-1" value="" style="whiteSpace=wrap;html=1;aspect=fixed;" vertex="1" parent="1">
          <mxGeometry x="60" y="130" width="670" height="670" as="geometry" />
        </mxCell>
        <mxCell id="aSZeypr-7qF1xaAPTcSq-2" value="" style="whiteSpace=wrap;html=1;aspect=fixed;" vertex="1" parent="1">
          <mxGeometry x="140" y="180" width="500" height="500" as="geometry" />
        </mxCell>
      </root>
    </mxGraphModel>
  </diagram>
</mxfile>
